<?xml version="1.0" encoding="UTF-8"?>
<svg width="100px" height="75px" viewBox="0 0 100 75" version="1.1" xmlns="http://www.w3.org/2000/svg" xmlns:xlink="http://www.w3.org/1999/xlink">
    <!-- Generator: Sketch 52.3 (67297) - http://www.bohemiancoding.com/sketch -->
    <title>Logo Symbol</title>
    <desc>Created with Sketch.</desc>
    <defs>
        <linearGradient x1="50%" y1="-2.48949813e-15%" x2="50%" y2="100%" id="linearGradient-1">
            <stop stop-color="#82D84E" offset="0%"></stop>
            <stop stop-color="#0EAD69" offset="100%"></stop>
        </linearGradient>
    </defs>
    <g id="UI-Design" stroke="none" stroke-width="1" fill="none" fill-rule="evenodd">
        <g id="10_Sign-Up_Register-Account" transform="translate(-138.000000, -92.000000)" fill="url(#linearGradient-1)">
            <g id="Content" transform="translate(0.000000, 92.000000)">
                <g id="Logo-Symbol" transform="translate(138.000000, 0.000000)">
                    <path d="M94.8477546,2.84217094e-14 C97.5563358,0.928632116 98.4756221,3.20900595 99.0888761,5.68581138 C99.8659364,8.82429907 99.9459704,12.0327952 99.7232007,15.2280374 C98.684628,30.1276126 94.5315269,44.1201359 87.251323,57.1626168 C84.9784258,61.2344945 82.2297427,64.9723025 78.7282984,68.1019541 C76.3344156,70.2416313 73.6803799,71.9514019 70.5143646,72.6897196 C64.8329713,74.0149533 60.2229458,71.8966865 57.3400231,66.6864911 C55.5189526,63.3957519 54.6112211,59.8158029 54.0676357,56.1299915 C53.16908,50.0384027 53.2939738,43.9389975 53.9797852,37.8380629 C53.9886212,37.7590484 53.9808047,37.6781648 53.9808047,37.3549703 C53.7191225,37.8717077 53.5534471,38.1879354 53.3972873,38.5087511 C47.7016204,50.2169924 41.5665312,61.6847918 34.6577801,72.728802 C34.6428268,72.7527613 34.6265142,72.7760408 34.6115609,72.8 C33.5012805,74.5595582 33.4795303,74.5988105 31.6098617,73.5678845 C28.2440163,71.7116398 25.5650019,69.2028887 24.2139398,65.4892099 C23.446905,63.3807986 23.6450358,61.2361937 24.0771514,59.1187766 C25.5191225,52.0543755 27.0496238,45.0079864 28.4776612,37.9408666 C29.8120707,31.3376381 31.0769815,24.7179269 30.9529373,17.9323704 C30.9160639,15.9146984 30.6955031,13.9163976 29.9208217,12.0293968 C29.0508132,9.9104503 27.4686552,8.79167375 25.455741,8.85879354 C24.1243901,8.90314359 23.0139398,9.51520816 22.011391,10.3418862 C20.2117308,11.8259983 18.8773213,13.695497 17.7949084,15.7255735 C13.4793604,23.8188615 10.9631327,32.3925234 11.0717138,41.6368734 C11.0949934,43.6241291 11.4683154,45.0231096 12.4222661,47.1017842 C9.88955581,48.3643161 7.29754221,49.3731521 4.39473847,48.8936279 C2.09737229,48.5140187 0.59167985,46.6553951 0.201365492,43.848938 C-0.281727117,40.3763806 0.166871014,36.9507222 0.885477641,33.5632965 C2.55531621,25.6915888 5.733566,18.5039932 10.8768115,12.264401 C14.5743476,7.77892948 19.0256646,4.34426508 24.7415524,2.80271878 C27.5043392,2.05760408 30.3165736,1.80254885 33.1544666,2.27204758 C37.9347555,3.06253186 40.7356051,6.00798641 42.0110511,10.5564996 C42.9546365,13.9213254 43.0858175,17.3627867 42.9364547,20.8280374 C42.6503035,27.4655905 41.4365397,33.9767205 40.2421471,40.4892099 C39.2168285,46.0803738 38.162453,51.6662702 37.1250698,57.2550552 C37.0922746,57.4312659 37.1041692,57.615633 37.2229458,57.828887 C37.8006858,56.4878505 38.3785957,55.1469839 38.9561658,53.8059473 C45.0618583,39.6287171 51.1595643,25.4480884 57.2815694,11.2779949 C58.1672109,9.22854715 59.1604139,7.22514868 60.1198022,5.20781648 C61.251323,2.82820731 63.0105414,2.04638912 65.5517478,2.83143585 C68.1636425,3.6382328 70.1345855,5.35564996 71.83586,7.41818182 C71.955826,7.56363636 71.9842032,7.89855565 71.9043392,8.07850467 C68.8732431,14.9050127 66.9311871,22.0803738 65.1123256,29.2924384 C63.520312,35.6045879 62.2040843,41.9760408 61.4462253,48.4458794 C60.9255796,52.8907392 60.491425,57.3553101 61.3768965,61.8084962 C61.5622831,62.7406967 61.8606688,63.6791844 62.2778311,64.531011 C63.1850528,66.3831776 64.7289781,67.0207307 66.7347555,66.5128292 C68.2309322,66.1340697 69.4689951,65.3014444 70.5876017,64.280034 C73.1289781,61.9593883 75.0005159,59.1271028 76.6616883,56.1525913 C80.9067181,48.5508921 83.806803,40.4115548 86.1627928,32.0647409 C87.9707793,25.6584537 89.3830137,19.1670348 90.0132601,12.5286321 C90.3240503,9.25437553 90.4837784,5.97587086 89.7819942,2.7162277 C89.7218413,2.43670348 89.8955031,1.94409516 90.1218413,1.79388275 C91.098052,1.14647409 92.1342457,0.589804588 93.1485193,2.84217094e-14 L94.8477546,2.84217094e-14 Z" id="Fill-1"></path>
                </g>
            </g>
        </g>
    </g>
</svg>